<?xml version="1.0" standalone="no"?>
<!DOCTYPE svg PUBLIC "-//W3C//DTD SVG 20010904//EN"
 "http://www.w3.org/TR/2001/REC-SVG-20010904/DTD/svg10.dtd">
<svg version="1.0" xmlns="http://www.w3.org/2000/svg"
 width="201.000000pt" height="65.000000pt" viewBox="0 0 201.000000 65.000000"
 preserveAspectRatio="xMidYMid meet">
<metadata>
Created by potrace 1.10, written by Peter Selinger 2001-2011
</metadata>
<g transform="translate(0.000000,65.000000) scale(0.100000,-0.100000)"
fill="#3ece3b" stroke="none">
<path d="M227 464 c-4 -4 -7 -19 -7 -33 l0 -25 -28 27 c-15 15 -36 27 -45 27
-25 0 -21 -33 9 -61 l26 -24 -29 -5 c-43 -8 -36 -34 10 -38 31 -3 43 2 68 27
25 25 30 38 27 68 -3 35 -17 51 -31 37z"/>
<path d="M277 463 c-4 -3 -7 -22 -7 -41 0 -49 49 -94 99 -90 25 2 37 8 39 21
3 13 -3 17 -29 17 l-33 0 27 28 c15 15 27 36 27 45 0 26 -37 21 -56 -8 -18
-28 -40 -34 -30 -9 10 25 -20 55 -37 37z"/>
<path d="M710 445 c-18 -21 -5 -47 22 -43 26 3 37 36 16 49 -18 12 -24 11 -38
-6z"/>
<path d="M850 451 c-19 -5 -26 -14 -28 -39 -2 -20 -9 -32 -18 -32 -8 0 -14 -9
-14 -20 0 -11 7 -20 15 -20 12 0 15 -13 15 -56 0 -76 11 -94 60 -94 33 0 40 3
40 19 0 13 -8 21 -22 23 -20 3 -23 10 -26 56 -3 50 -2 52 22 52 19 0 26 5 26
20 0 15 -7 20 -26 20 -25 0 -26 2 -20 40 3 22 5 40 4 39 -2 -1 -14 -4 -28 -8z"/>
<path d="M972 451 c-21 -13 -10 -46 16 -49 27 -4 40 22 22 43 -14 17 -20 18
-38 6z"/>
<path d="M538 434 c-37 -19 -58 -63 -58 -118 0 -88 38 -126 129 -126 54 0 63
6 55 38 -5 18 -10 19 -31 11 -52 -20 -96 18 -96 83 0 56 39 93 88 84 27 -5 33
-3 38 13 3 11 2 22 -1 25 -11 12 -98 5 -124 -10z"/>
<path d="M1268 375 c-35 -20 -52 -75 -37 -127 12 -47 35 -60 102 -56 44 3 52
6 55 23 3 19 -2 21 -49 20 -44 0 -53 3 -60 23 -8 21 -7 22 56 22 l65 0 -6 33
c-7 38 -46 77 -77 77 -12 -1 -34 -7 -49 -15z m70 -37 c20 -20 14 -28 -23 -28
-24 0 -35 5 -35 14 0 24 39 33 58 14z"/>
<path d="M1502 374 c-12 -8 -22 -10 -22 -5 0 6 -11 11 -25 11 -25 0 -25 0 -25
-95 l0 -95 30 0 29 0 -6 50 c-7 57 14 100 47 100 18 0 20 -7 20 -75 0 -73 1
-75 25 -75 25 0 25 1 25 84 0 76 -2 86 -22 100 -12 9 -29 16 -38 16 -9 0 -26
-7 -38 -16z"/>
<path d="M1690 383 c-69 -25 -64 -96 8 -117 38 -12 27 -36 -18 -36 -33 0 -40
-3 -40 -20 0 -17 7 -20 43 -20 58 0 89 23 85 63 -2 25 -10 35 -38 48 -45 22
-46 45 -2 43 28 -2 32 1 32 22 0 20 -5 24 -27 23 -16 0 -35 -3 -43 -6z"/>
<path d="M1801 383 c0 -5 4 -17 8 -28 7 -17 8 -17 13 8 4 19 1 27 -8 27 -8 0
-14 -3 -13 -7z"/>
<path d="M1837 384 c-17 -17 -6 -40 18 -40 20 0 25 5 25 24 0 20 -3 22 -14 13
-10 -9 -15 -9 -18 -1 -2 6 -7 8 -11 4z"/>
<path d="M710 285 c0 -95 0 -95 25 -95 25 0 25 0 25 95 0 95 0 95 -25 95 -25
0 -25 0 -25 -95z"/>
<path d="M960 285 l0 -95 28 0 27 0 0 95 0 95 -27 0 -28 0 0 -95z"/>
<path d="M1060 361 c0 -15 8 -21 35 -23 l35 -3 -40 -59 c-56 -82 -55 -86 35
-86 74 0 75 0 75 26 0 25 -2 26 -40 21 -22 -3 -40 -3 -40 0 0 3 16 28 35 54
19 27 35 58 35 69 0 18 -7 20 -65 20 -58 0 -65 -2 -65 -19z"/>
<path d="M124 305 c-9 -23 6 -37 32 -31 31 8 31 -7 -1 -28 -29 -19 -34 -56 -8
-56 9 0 30 12 45 27 l28 27 0 -33 c0 -26 4 -32 18 -29 12 2 18 14 20 40 3 31
-2 42 -30 67 -36 33 -94 42 -104 16z"/>
<path d="M302 287 c-27 -28 -33 -41 -30 -68 2 -26 8 -34 23 -34 16 0 20 6 18
29 l-2 29 27 -27 c16 -14 36 -26 45 -26 26 0 21 36 -8 58 -32 25 -31 31 3 29
21 -2 27 2 27 18 0 16 -8 21 -35 23 -29 2 -41 -3 -68 -31z"/>
</g>
</svg>
